<?xml version="1.0" standalone="no"?>
<!DOCTYPE svg PUBLIC "-//W3C//DTD SVG 1.1//EN" "http://www.w3.org/Graphics/SVG/1.1/DTD/svg11.dtd">
<svg xmlns="http://www.w3.org/2000/svg" width="172" height="45" viewBox="0 0 172 45" fill="none">
<path d="M81.4306 11.7895V8.736H82.4313C83.731 8.736 84.8452 8.13768 84.8452 6.70379C84.8452 6.02295 84.5976 5.55874 84.154 5.17705C83.7207 4.80568 83.1224 4.67158 82.4313 4.67158H80.43V11.7895H81.4306ZM82.3487 7.92105H81.4306V5.48653H82.3487C83.143 5.48653 83.8136 5.81663 83.8136 6.70379C83.8136 7.60126 83.143 7.92105 82.3487 7.92105ZM92.3069 11.7895V10.9436H89.0574V8.4781H92.049V7.63221H89.0574V5.50716H92.2244V4.67158H88.0568V11.7895H92.3069ZM96.6842 11.7895V8.72568H97.4476L99.3045 11.7895H100.511L98.4792 8.62253C99.2322 8.4781 100.099 7.92105 100.099 6.67284C100.099 5.25958 98.964 4.67158 97.6952 4.67158H95.6836V11.7895H96.6842ZM97.4167 7.90042H96.6842V5.48653H97.4167C97.9118 5.48653 98.2935 5.50716 98.6133 5.74442C98.9331 5.97137 99.0672 6.27053 99.0672 6.69347C99.0672 7.12674 98.9331 7.41558 98.6133 7.65284C98.2935 7.87979 97.9118 7.90042 97.4167 7.90042ZM104.404 11.7895V8.71537H107.179V7.87979H104.404V5.50716H107.354V4.67158H103.403V11.7895H104.404ZM113.815 11.9133C115.817 11.9133 117.488 10.5206 117.488 8.24084C117.488 5.96105 115.817 4.56842 113.815 4.56842C111.814 4.56842 110.143 5.96105 110.143 8.24084C110.143 10.5206 111.814 11.9133 113.815 11.9133ZM113.815 11.0055C112.371 11.0055 111.164 9.95326 111.164 8.22021C111.164 6.47684 112.361 5.43495 113.815 5.43495C115.27 5.43495 116.466 6.47684 116.466 8.22021C116.466 9.95326 115.27 11.0055 113.815 11.0055ZM121.803 11.7895V8.72568H122.567L124.424 11.7895H125.63L123.598 8.62253C124.351 8.4781 125.218 7.92105 125.218 6.67284C125.218 5.25958 124.083 4.67158 122.814 4.67158H120.803V11.7895H121.803ZM122.536 7.90042H121.803V5.48653H122.536C123.031 5.48653 123.413 5.50716 123.732 5.74442C124.052 5.97137 124.186 6.27053 124.186 6.69347C124.186 7.12674 124.052 7.41558 123.732 7.65284C123.413 7.87979 123.031 7.90042 122.536 7.90042ZM132.473 11.8514L134.65 6.16737H134.681L135.145 11.7895H136.135L135.485 4.67158H134.258L132.205 10.1699H132.184L130.131 4.67158H128.894L128.254 11.7895H129.244L129.698 6.16737H129.729L131.906 11.8514H132.473ZM139.811 11.7895L140.543 9.93263H143.597L144.329 11.7895H145.443L142.534 4.65095H141.658L138.759 11.7895H139.811ZM143.318 9.09705H140.822L142.07 5.89916L143.318 9.09705ZM149.388 11.7895V8.00358C149.388 7.07516 149.367 6.11579 149.367 6.11579L153.473 11.7895H154.453V4.67158H153.473V8.44716C153.473 9.3233 153.482 10.1455 153.483 10.2513L153.483 10.2627L149.45 4.67158H148.397V11.7895H149.388ZM161.409 11.9133C162.76 11.9133 163.575 11.3562 164.019 10.8611L163.586 10.1286C163.121 10.6341 162.399 10.9952 161.461 10.9952C159.934 10.9952 158.809 9.89137 158.809 8.22021C158.809 6.54905 159.923 5.44526 161.461 5.44526C162.451 5.44526 163.245 5.96105 163.524 6.31179L163.947 5.50716C163.555 5.12547 162.75 4.56842 161.419 4.56842C159.377 4.56842 157.778 6.02295 157.778 8.24084C157.778 10.4587 159.335 11.9133 161.409 11.9133ZM171.439 11.7895V10.9436H168.19V8.4781H171.181V7.63221H168.19V5.50716H171.357V4.67158H167.189V11.7895H171.439Z" fill="white"/>
<path d="M81.4306 25.6053V18.4874H80.43V25.6053H81.4306ZM89.0471 25.6672L91.2237 19.9832H91.2547L91.7189 25.6053H92.7092L92.0593 18.4874H90.8317L88.7789 23.9857H88.7583L86.7054 18.4874H85.4675L84.8279 25.6053H85.8183L86.2722 19.9832H86.3031L88.4797 25.6672H89.0471ZM97.1072 25.6053V22.5518H98.1078C99.4076 22.5518 100.522 21.9535 100.522 20.5196C100.522 19.8387 100.274 19.3745 99.8306 18.9928C99.3973 18.6215 98.799 18.4874 98.1078 18.4874H96.1066V25.6053H97.1072ZM98.0253 21.7368H97.1072V19.3023H98.0253C98.8196 19.3023 99.4901 19.6324 99.4901 20.5196C99.4901 21.4171 98.8196 21.7368 98.0253 21.7368ZM104.734 25.6053V22.5415H105.497L107.354 25.6053H108.561L106.529 22.4383C107.282 22.2939 108.149 21.7368 108.149 20.4886C108.149 19.0754 107.014 18.4874 105.745 18.4874H103.733V25.6053H104.734ZM105.466 21.7162H104.734V19.3023H105.466C105.962 19.3023 106.343 19.323 106.663 19.5602C106.983 19.7872 107.117 20.0863 107.117 20.5093C107.117 20.9425 106.983 21.2314 106.663 21.4686C106.343 21.6956 105.962 21.7162 105.466 21.7162ZM114.723 25.7291C116.724 25.7291 118.395 24.3364 118.395 22.0566C118.395 19.7768 116.724 18.3842 114.723 18.3842C112.722 18.3842 111.051 19.7768 111.051 22.0566C111.051 24.3364 112.722 25.7291 114.723 25.7291ZM114.723 24.8213C113.279 24.8213 112.072 23.7691 112.072 22.036C112.072 20.2926 113.269 19.2507 114.723 19.2507C116.178 19.2507 117.374 20.2926 117.374 22.036C117.374 23.7691 116.178 24.8213 114.723 24.8213ZM124.186 25.6156L126.806 18.4874H125.754L123.753 24.1611L121.752 18.4874H120.679L123.299 25.6156H124.186ZM134 25.6053V24.7594H130.75V22.2939H133.742V21.448H130.75V19.323H133.917V18.4874H129.75V25.6053H134ZM141.276 25.6672L143.452 19.9832H143.483L143.948 25.6053H144.938L144.288 18.4874H143.06L141.008 23.9857H140.987L138.934 18.4874H137.696L137.057 25.6053H138.047L138.501 19.9832H138.532L140.708 25.6672H141.276ZM152.586 25.6053V24.7594H149.336V22.2939H152.328V21.448H149.336V19.323H152.503V18.4874H148.336V25.6053H152.586ZM156.953 25.6053V21.8194C156.953 20.891 156.932 19.9316 156.932 19.9316L161.038 25.6053H162.018V18.4874H161.038L161.038 22.5419C161.039 23.2765 161.046 23.9193 161.048 24.053L161.048 24.0785L157.014 18.4874H155.962V25.6053H156.953ZM168.045 25.6053V19.323H170.047V18.4874H165.033V19.323H167.045V25.6053H168.045Z" fill="white"/>
<path d="M81.4306 39.4211V36.3676H82.4313C83.731 36.3676 84.8452 35.7693 84.8452 34.3354C84.8452 33.6545 84.5976 33.1903 84.154 32.8086C83.7207 32.4373 83.1224 32.3032 82.4313 32.3032H80.43V39.4211H81.4306ZM82.3487 35.5526H81.4306V33.1181H82.3487C83.143 33.1181 83.8136 33.4482 83.8136 34.3354C83.8136 35.2329 83.143 35.5526 82.3487 35.5526ZM88.0258 39.4211L88.7583 37.5642H91.8117L92.5442 39.4211H93.6583L90.7492 32.2825H89.8724L86.9736 39.4211H88.0258ZM91.5332 36.7286H89.0368L90.285 33.5307L91.5332 36.7286ZM97.6127 39.4211V36.3573H98.376L100.233 39.4211H101.44L99.4076 36.2541C100.161 36.1097 101.027 35.5526 101.027 34.3044C101.027 32.8912 99.8925 32.3032 98.6236 32.3032H96.612V39.4211H97.6127ZM98.3451 35.532H97.6127V33.1181H98.3451C98.8403 33.1181 99.2219 33.1387 99.5417 33.376C99.8615 33.603 99.9956 33.9021 99.9956 34.3251C99.9956 34.7583 99.8615 35.0472 99.5417 35.2844C99.2219 35.5114 98.8403 35.532 98.3451 35.532ZM106.632 39.4211V33.1387H108.633V32.3032H103.62V33.1387H105.631V39.4211H106.632ZM112.639 39.4211V35.6352C112.639 34.7067 112.619 33.7474 112.619 33.7474L116.724 39.4211H117.704V32.3032H116.724L116.725 36.2654C116.726 37.1305 116.735 37.8943 116.735 37.8943L112.701 32.3032H111.649V39.4211H112.639ZM125.682 39.4211V38.5752H122.433V36.1097H125.424V35.2638H122.433V33.1387H125.6V32.3032H121.432V39.4211H125.682ZM130.059 39.4211V36.3573H130.823L132.679 39.4211H133.886L131.854 36.2541C132.607 36.1097 133.474 35.5526 133.474 34.3044C133.474 32.8912 132.339 32.3032 131.07 32.3032H129.059V39.4211H130.059ZM130.792 35.532H130.059V33.1181H130.792C131.287 33.1181 131.669 33.1387 131.988 33.376C132.308 33.603 132.442 33.9021 132.442 34.3251C132.442 34.7583 132.308 35.0472 131.988 35.2844C131.669 35.5114 131.287 35.532 130.792 35.532ZM138.645 39.5449C139.894 39.5449 141.131 38.8227 141.131 37.4404C141.131 36.5945 140.626 36.0065 139.894 35.6661L138.583 35.1194C138.15 34.944 137.665 34.6964 137.665 34.0362C137.665 33.376 138.202 33.0459 138.903 33.0459C139.605 33.0459 140.12 33.4379 140.471 33.8093L140.997 33.1284C140.801 32.9221 140.12 32.2103 138.955 32.2103C137.82 32.2103 136.665 32.8396 136.665 34.1084C136.665 34.944 137.108 35.5114 137.841 35.8518C138.109 35.9859 138.604 36.1819 138.975 36.3263C139.336 36.4707 140.131 36.7596 140.131 37.5023C140.131 38.2554 139.512 38.699 138.738 38.699C137.964 38.699 137.294 38.1625 136.933 37.6777L136.345 38.3482C136.685 38.7402 137.397 39.5449 138.645 39.5449Z" fill="white"/>
<path d="M13.1124 34.9688L43.2609 4.79464L47.8552 9.38497L17.7066 39.5591L13.1124 34.9688Z" fill="white"/>
<path d="M42.4999 38.7702L32.7744 29.0447L37.3107 24.5083L44.7845 31.9493L53.074 23.6598L45.6982 16.2842L50.2346 11.7151L59.8946 21.3753C60.4822 21.9628 60.841 22.8113 60.841 23.6598C60.841 24.5083 60.4822 25.3243 59.8946 25.9443L47.0687 38.7702C46.4487 39.3902 45.6654 39.7166 44.7845 39.7166C43.9357 39.684 43.12 39.3576 42.4999 38.7702Z" fill="white"/>
<path d="M0.954594 22.7787C-0.318198 21.5059 -0.318198 19.4825 0.954594 18.2097L13.8131 5.3512C15.0532 4.11104 17.1093 4.11104 18.3494 5.3512L28.0749 15.0766L23.5059 19.6456L16.0649 12.2047L7.77545 20.4942L15.1511 27.8699L10.6148 32.4388L0.954594 22.7787Z" fill="white"/>
<path opacity="0.3" d="M71.2212 0H70.4053V44.2105H71.2212V0Z" fill="white"/>
</svg>